<svg width="37" height="36" viewBox="0 0 37 36" fill="none" xmlns="http://www.w3.org/2000/svg">
<ellipse cx="18.667" cy="18" rx="14" ry="9" fill="#FFCB7D"/>
<path d="M23.917 19C23.917 15.8084 21.417 11.5 17.917 11" stroke="#EBB667" stroke-width="2"/>
<path d="M28.667 19C28.667 15.3331 26.167 11.5 21.667 10" stroke="#EBB667" stroke-width="2"/>
<path d="M18.667 8C12.9932 8 7.52169 9.97253 6.75771 12.4311C6.64895 12.7811 6.86541 13.1306 7.19843 13.2837C8.76476 14.0034 9.94055 13.8888 11.667 13.0162C14.667 11.5 16.667 11.5 19.667 13.0162C22.2243 14.3087 28.069 14.9382 30.3499 13.2842C30.5658 13.1276 30.6788 12.8635 30.6218 12.603C30.0661 10.0651 24.4725 8 18.667 8Z" fill="#6B432C"/>
<path d="M6.66699 2.2433C6.66699 1.83066 6.9976 1.4941 7.41018 1.48673L33.6582 1.01801C34.2124 1.00812 34.667 1.45465 34.667 2.00893C34.667 2.55628 34.2233 3 33.6759 3H7.42369C7.00578 3 6.66699 2.66122 6.66699 2.2433Z" fill="#2A2A2E"/>
<rect x="9.91699" width="2" height="12" rx="0.8" fill="#6B432C"/>
<rect x="12.917" width="2" height="11" rx="0.8" fill="#6B432C"/>
<path d="M3.60356 19.7612C3.63941 19.331 3.99909 19 4.43085 19H32.9031C33.3349 19 33.6946 19.331 33.7304 19.7612C34.2346 25.8112 29.4602 31 23.3893 31H13.9447C7.87376 31 3.09939 25.8112 3.60356 19.7612Z" fill="#ED5960"/>
<path d="M11.667 33.1667C11.667 30.8655 13.5325 29 15.8337 29H21.5003C23.8015 29 25.667 30.8655 25.667 33.1667C25.667 33.6269 25.2939 34 24.8337 34H12.5003C12.0401 34 11.667 33.6269 11.667 33.1667Z" fill="#ED5960"/>
<circle cx="16.667" cy="8" r="2" fill="#4DB662"/>
<circle cx="20.667" cy="8" r="2" fill="#4DB662"/>
</svg>
