<svg width="36" height="36" viewBox="0 0 36 36" fill="none" xmlns="http://www.w3.org/2000/svg">
<path d="M3 34.3007C3 33.5339 3.51596 32.8629 4.25714 32.6661L32.8744 25.0646C33.9478 24.7795 35 25.5887 35 26.6993C35 27.4661 34.484 28.1371 33.7429 28.3339L5.12556 35.9354C4.05219 36.2205 3 35.4113 3 34.3007Z" fill="black" fill-opacity="0.05"/>
<path d="M4 16L33.3712 8.16769C33.6886 8.08304 34 8.32229 34 8.65081V25.1159C34 25.3424 33.8477 25.5406 33.6288 25.599L4.62883 33.3323C4.31141 33.417 4 33.1777 4 32.8492V16Z" fill="#FFD89D"/>
<path d="M33.6591 8.3507L4.5246 15.9705C4.01558 16.1036 3.67271 15.4613 4.06657 15.1125L19.0175 1.87022C19.614 1.34187 20.4672 1.21805 21.1893 1.55503L33.744 7.41388C34.1683 7.61188 34.1121 8.23223 33.6591 8.3507Z" fill="white"/>
<path d="M4 22.5L34 14.5V20L4 28V22.5Z" fill="white"/>
<path d="M30 8.5C30 8.22386 30.2239 8 30.5 8H34V25.1157C34 25.3423 33.8476 25.5406 33.6286 25.5989L30 26.5648V8.5Z" fill="white"/>
<circle cx="16" cy="5.5" r="4" fill="#FB6269"/>
<path d="M23.9282 5.23205C23.9282 5.23205 23.7735 7.63077 21.4641 8.9641C19.1547 10.2974 17 9.23205 17 9.23205C17 9.23205 17.1547 6.83333 19.4641 5.5C21.7735 4.16667 23.9282 5.23205 23.9282 5.23205Z" fill="#59C96F"/>
</svg>
