<svg width="36" height="36" viewBox="0 0 36 36" fill="none" xmlns="http://www.w3.org/2000/svg">
<path d="M4 32.2222C4 30.9949 4.99492 30 6.22222 30H29.7778C31.0051 30 32 30.9949 32 32.2222C32 33.2041 31.2041 34 30.2222 34H5.77778C4.79594 34 4 33.2041 4 32.2222Z" fill="black" fill-opacity="0.05"/>
<path d="M3.06456 26.9222C3.68945 29.6031 6.0793 31.5 8.83213 31.5H27.1679C29.9207 31.5 32.3105 29.6031 32.9354 26.9222C33.224 25.6841 32.2842 24.5 31.0129 24.5H4.98709C3.71582 24.5 2.77599 25.6841 3.06456 26.9222Z" fill="#F7A668"/>
<path d="M4.67716 23.5H31.4054C32.5622 23.5 33.5 24.4378 33.5 25.5946C33.5 25.9641 33.3767 26.3293 33.1099 26.5849C32.4666 27.2011 31.7846 27.5061 31.1294 27.4998C30.353 27.4924 29.6142 27.048 29.0222 26.1666C28.4204 25.2706 27.591 24.9891 26.7635 24.9963C25.9492 25.0034 25.1367 25.2849 24.5444 26.1666C23.9409 27.0653 23.1085 27.5097 22.2786 27.4998C21.4667 27.4902 20.6572 27.0458 20.0667 26.1666C19.486 25.2852 18.7615 25.0037 18 24.9963C17.2256 24.9887 16.4131 25.2703 15.675 26.1666C14.9369 27.063 14.1244 27.5074 13.35 27.4998C12.5885 27.4924 11.864 27.048 11.2833 26.1666C10.7291 25.3253 9.97814 25.045 9.21667 25C8.36912 24.9499 7.50854 25.2302 6.89167 26.1666C6.27479 27.1031 5.41421 27.5463 4.56667 27.4962C3.9331 27.4587 3.30681 27.1457 2.79506 26.5569C2.58559 26.3159 2.5 25.9965 2.5 25.6772C2.5 24.4747 3.47475 23.5 4.67716 23.5Z" fill="#4DB662"/>
<path d="M3 16.5C3 15.3954 3.89543 14.5 5 14.5H31C32.1046 14.5 33 15.3954 33 16.5V21.5C33 22.6046 32.1046 23.5 31 23.5H5C3.89543 23.5 3 22.6046 3 21.5V16.5Z" fill="#6B432C"/>
<path d="M2.84826 13.964C3.03172 13.675 3.35021 13.5 3.69247 13.5H32.3075C32.6498 13.5 32.9683 13.675 33.1517 13.964L33.6331 14.7222C33.8146 15.008 33.6655 15.3878 33.338 15.4738L18 19.5L2.66204 15.4738C2.33453 15.3878 2.18539 15.008 2.36688 14.7222L2.84826 13.964Z" fill="#FFD243"/>
<rect x="3" y="10.5" width="30" height="3" rx="1" fill="#ED5960"/>
<path d="M2.56611 7.811C3.21775 4.7157 5.94848 2.5 9.11163 2.5H26.8884C30.0515 2.5 32.7823 4.7157 33.4339 7.811C33.7257 9.19684 32.6683 10.5 31.2521 10.5H4.74795C3.33172 10.5 2.27435 9.19684 2.56611 7.811Z" fill="#F7A668"/>
</svg>
