<svg width="37" height="36" viewBox="0 0 37 36" fill="none" xmlns="http://www.w3.org/2000/svg">
<path d="M2.66699 30.6667C2.66699 29.7462 3.41318 29 4.33366 29H33.0003C33.9208 29 34.667 29.7462 34.667 30.6667C34.667 31.403 34.07 32 33.3337 32H4.00033C3.26395 32 2.66699 31.403 2.66699 30.6667Z" fill="black" fill-opacity="0.05"/>
<path d="M3.21797 16.5752C3.88971 10.6191 8.92754 6.11755 14.9214 6.11755H22.2945C28.2883 6.11755 33.3262 10.6191 33.9979 16.5752C34.2604 18.9029 32.4392 20.9411 30.0968 20.9411H7.11912C4.77666 20.9411 2.95545 18.9029 3.21797 16.5752Z" fill="#EFBE74"/>
<circle cx="26.0202" cy="12.4705" r="7.41176" fill="#ED5960"/>
<path d="M9.7708 5.37167C10.5669 4.60571 11.8259 4.60571 12.622 5.37167C13.1119 5.84301 13.8031 6.04176 14.4685 5.9026L15.129 5.76448C16.0103 5.58018 16.8508 6.21816 16.9104 7.11654C16.9513 7.73442 17.3723 8.26163 17.9657 8.43836L18.4133 8.57165C19.2863 8.8316 19.6079 9.90022 19.0235 10.5988C18.6299 11.0693 18.6299 11.7542 19.0235 12.2247C19.6079 12.9233 19.2863 13.9919 18.4133 14.2519L17.9657 14.3852C17.3723 14.5619 16.9513 15.0891 16.9104 15.707C16.8508 16.6054 16.0103 17.2434 15.129 17.0591L14.4685 16.9209C13.8031 16.7818 13.1119 16.9805 12.622 17.4519C11.8259 18.2178 10.5669 18.2178 9.7708 17.4519C9.28092 16.9805 8.58974 16.7818 7.92432 16.9209L7.26381 17.0591C6.38252 17.2434 5.54196 16.6054 5.48243 15.707C5.44148 15.0891 5.02055 14.5619 4.42708 14.3852L3.97949 14.2519C3.10655 13.9919 2.7849 12.9233 3.36931 12.2247C3.76289 11.7542 3.76289 11.0693 3.36931 10.5988C2.7849 9.90022 3.10655 8.8316 3.97949 8.57165L4.42707 8.43836C5.02055 8.26163 5.44148 7.73442 5.48243 7.11654C5.54196 6.21816 6.38252 5.58018 7.26381 5.76448L7.92432 5.9026C8.58974 6.04176 9.28092 5.84301 9.7708 5.37167Z" fill="#4DB662"/>
<path d="M3.26668 19.6933C3.90837 13.1909 9.37714 8.23523 15.9111 8.23523H21.3047C27.8388 8.23523 33.3075 13.1909 33.9492 19.6933L34.0313 20.5252C34.2771 23.0166 32.32 25.1764 29.8165 25.1764H7.39941C4.89592 25.1764 2.93873 23.0166 3.18459 20.5252L3.26668 19.6933Z" fill="#654735"/>
<ellipse cx="10.1376" cy="16.7058" rx="8.47059" ry="7.41176" fill="#ED5960"/>
<path d="M25.4756 10.1189C26.316 9.1313 27.8409 9.1313 28.6813 10.1189C29.2022 10.731 30.0262 10.993 30.805 10.7941L30.9724 10.7514C32.1783 10.4433 33.3649 11.3144 33.4323 12.5572C33.4752 13.3471 33.9854 14.0352 34.7289 14.3056L34.836 14.3446C36.0075 14.7707 36.4625 16.1874 35.7581 17.2159C35.313 17.8658 35.313 18.7223 35.7581 19.3722C36.4625 20.4007 36.0075 21.8174 34.836 22.2435L34.7289 22.2825C33.9854 22.5529 33.4752 23.241 33.4323 24.0309C33.3649 25.2737 32.1783 26.1448 30.9724 25.8367L30.805 25.794C30.0262 25.5951 29.2022 25.8571 28.6813 26.4692C27.8409 27.4568 26.316 27.4568 25.4756 26.4692C24.9548 25.8571 24.1307 25.5951 23.352 25.794L23.1845 25.8367C21.9786 26.1448 20.792 25.2737 20.7246 24.0309C20.6817 23.241 20.1715 22.5529 19.4281 22.2825L19.3209 22.2435C18.1494 21.8174 17.6945 20.4007 18.3989 19.3722C18.844 18.7223 18.844 17.8658 18.3989 17.2159C17.6945 16.1874 18.1494 14.7707 19.3209 14.3446L19.4281 14.3056C20.1715 14.0352 20.6817 13.3471 20.7246 12.5572C20.792 11.3144 21.9786 10.4433 23.1845 10.7514L23.352 10.7941C24.1307 10.993 24.9548 10.731 25.4756 10.1189Z" fill="#4DB662"/>
<path d="M2.25283 23.8462C2.93352 17.3796 8.38655 12.4705 14.8889 12.4705H22.3274C28.8298 12.4705 34.2828 17.3796 34.9635 23.8462L35.18 25.9026C35.3774 27.7782 33.9068 29.4116 32.021 29.4116H5.19538C3.30951 29.4116 1.83894 27.7781 2.03636 25.9026L2.25283 23.8462Z" fill="#EFBE74"/>
<ellipse cx="12.7848" cy="17.2352" rx="2.64706" ry="1.58824" fill="#E6AF5C"/>
<circle cx="15.9613" cy="23.5881" r="1.58824" fill="#E6AF5C"/>
<ellipse cx="25.4901" cy="20.4117" rx="3.70588" ry="2.64706" fill="#E6AF5C"/>
</svg>
