<svg width="37" height="36" viewBox="0 0 37 36" fill="none" xmlns="http://www.w3.org/2000/svg">
<path d="M5.5332 33.8779C5.5332 32.896 6.32914 32.1001 7.31098 32.1001H29.3554C30.3373 32.1001 31.1332 32.896 31.1332 33.8779C31.1332 34.6633 30.4965 35.3001 29.711 35.3001H6.95543C6.16995 35.3001 5.5332 34.6633 5.5332 33.8779Z" fill="black" fill-opacity="0.05"/>
<rect x="3.93262" y="5.69995" width="28.8" height="14.4" rx="6.4" fill="white"/>
<path d="M3.66057 7.77762C3.37801 4.95193 5.59697 2.5 8.43675 2.5H28.2289C31.0687 2.5 33.2876 4.95193 33.0051 7.77762L32.9489 8.33881C32.8262 9.56569 31.7938 10.5 30.5608 10.5H6.10478C4.87178 10.5 3.83938 9.56569 3.71669 8.33881L3.66057 7.77762Z" fill="#FB6269"/>
<rect x="15.1328" y="2.5" width="6.4" height="12.8" fill="#2A2A2E"/>
<rect x="3.93262" y="18.5" width="28.8" height="14.4" rx="6.4" fill="white"/>
<path d="M3.96108 19.1587C4.40981 16.9151 6.3798 15.3 8.66787 15.3H27.9978C30.2858 15.3 32.2558 16.9151 32.7045 19.1587L32.9587 20.4294C33.2557 21.9145 32.1198 23.3 30.6053 23.3H6.06034C4.54583 23.3 3.40993 21.9145 3.70695 20.4294L3.96108 19.1587Z" fill="#FEA661"/>
<path d="M14.333 16.9615C14.333 15.6021 15.4351 14.5 16.7945 14.5H19.8715C21.2309 14.5 22.333 15.6021 22.333 16.9615C22.333 17.8112 21.6442 18.5 20.7945 18.5H15.8715C15.0218 18.5 14.333 17.8112 14.333 16.9615Z" fill="#4DB662"/>
</svg>
