<svg width="37" height="36" viewBox="0 0 37 36" fill="none" xmlns="http://www.w3.org/2000/svg">
<path fill-rule="evenodd" clip-rule="evenodd" d="M23.8595 25.4595C25.3481 25.4441 26.6603 25.4305 28.167 25C31.5215 24.0416 33.0388 19.8681 33.1592 16.0011L33.167 15.9999V15.5021C33.167 15.5014 33.167 15.5007 33.167 15.5C33.167 15.4997 33.167 15.4995 33.167 15.4992L33.167 8.99991L25.6907 9.98311C21.5731 8.80523 16.4031 8.48077 11.921 9.87812C9.34718 10.6805 7.37126 11.598 5.86029 12.591L1.16699 13.2082V20.9999L1.16713 20.9999C1.16704 21.022 1.16699 21.044 1.16699 21.0661C1.16724 25.0035 8.17009 28.8128 16.167 26.5C19.6122 25.5036 21.8902 25.48 23.8595 25.4595Z" fill="#BB6350"/>
<path d="M26.625 13.0285C22.9616 13.4571 21.3911 16.4209 16.1574 18.7544C8.56866 22.1378 1.76491 17.9735 1.24154 14.0696C0.718169 10.1656 2.81147 5.74128 11.9705 2.87838C21.1295 0.015492 33.167 4.69252 33.167 9.12464C33.167 13.0284 30.2885 12.5998 26.625 13.0285Z" fill="#6B432C"/>
<mask id="mask0_473_1444" style="mask-type:alpha" maskUnits="userSpaceOnUse" x="1" y="2" width="33" height="18">
<path d="M26.625 13.0285C22.9616 13.4571 21.3911 16.4209 16.1574 18.7544C8.56866 22.1378 1.76491 17.9735 1.24154 14.0696C0.718169 10.1656 2.81147 5.74128 11.9705 2.87838C21.1295 0.015492 33.167 4.69252 33.167 9.12464C33.167 13.0284 30.2885 12.5998 26.625 13.0285Z" fill="#6B432C"/>
</mask>
<g mask="url(#mask0_473_1444)">
<path d="M1.66699 8L14.667 21" stroke="black" stroke-opacity="0.2" stroke-width="3"/>
<path d="M9.66699 3L22.667 16" stroke="black" stroke-opacity="0.2" stroke-width="3"/>
<path d="M19.667 1L32.667 14" stroke="black" stroke-opacity="0.2" stroke-width="3"/>
</g>
<ellipse cx="10.167" cy="12" rx="4" ry="3" fill="#BB6350"/>
<ellipse cx="29.167" cy="22" rx="7" ry="6" fill="#DB9A75"/>
<path d="M26.667 19L32.667 23" stroke="#AF7351" stroke-linecap="round" stroke-linejoin="round"/>
<path d="M25.667 23L31.667 19" stroke="#AF7351" stroke-linecap="round" stroke-linejoin="round"/>
<rect x="16.167" y="25" width="18" height="4" rx="2" fill="#45A658"/>
<rect x="12.167" y="29" width="19" height="4" rx="2" fill="#4DB662"/>
</svg>
