<svg width="37" height="36" viewBox="0 0 37 36" fill="none" xmlns="http://www.w3.org/2000/svg">
<path d="M8.66699 33.6111C8.66699 32.9975 9.16445 32.5 9.7781 32.5H27.5559C28.1695 32.5 28.667 32.9975 28.667 33.6111C28.667 34.102 28.269 34.5 27.7781 34.5H9.55588C9.06496 34.5 8.66699 34.102 8.66699 33.6111Z" fill="black" fill-opacity="0.05"/>
<path d="M13.266 24.3851C12.9174 24.1411 12.8287 23.6628 13.0665 23.3099L28.1942 0.862606C28.5136 0.388663 29.1597 0.2688 29.6278 0.596612C30.0901 0.920329 30.2025 1.55754 29.8788 2.01985L14.3526 24.1935C14.1055 24.5465 13.6189 24.6323 13.266 24.3851Z" fill="#563623"/>
<path d="M13.536 23.8479C13.2625 23.522 13.3005 23.037 13.6215 22.7577L34.0436 4.99064C34.4748 4.61552 35.1298 4.66694 35.4972 5.10475C35.86 5.53709 35.8036 6.18167 35.3713 6.54444L14.6352 23.9441C14.3051 24.2211 13.8129 24.178 13.536 23.8479Z" fill="#563623"/>
<circle cx="18.6531" cy="13.782" r="9.28002" fill="#FFCB7D"/>
<circle cx="18.6533" cy="13.782" r="7.21779" fill="white" fill-opacity="0.5"/>
<circle cx="18.6526" cy="13.782" r="5.15556" fill="#FFCB7D"/>
<circle cx="18.6529" cy="13.7821" r="3.09334" fill="white" fill-opacity="0.5"/>
<circle cx="11.4346" cy="18.9065" r="7.21779" fill="#FFCB7D"/>
<circle cx="11.4349" cy="18.9065" r="5.15556" fill="white" fill-opacity="0.5"/>
<circle cx="11.4342" cy="18.9066" r="3.09334" fill="#FFCB7D"/>
<circle cx="25.8701" cy="18.9065" r="7.21779" fill="#FFCB7D"/>
<circle cx="25.8704" cy="18.9065" r="5.15556" fill="white" fill-opacity="0.5"/>
<circle cx="25.8697" cy="18.9066" r="3.09334" fill="#FFCB7D"/>
<path d="M3.13589 19.5998C3.16379 19.2092 3.48884 18.9065 3.88047 18.9065H33.4237C33.8154 18.9065 34.1404 19.2092 34.1683 19.5998C34.6987 27.0257 28.8174 33.3421 21.3726 33.3421H15.9316C8.48679 33.3421 2.60547 27.0257 3.13589 19.5998Z" fill="white"/>
<path d="M20.9827 7.95618C20.8348 7.87076 20.7841 7.68157 20.8695 7.53362L21.5913 6.28346C21.6767 6.13551 21.8659 6.08482 22.0138 6.17024L23.7692 7.1837C23.8921 7.25468 23.951 7.4002 23.912 7.53667L23.5027 8.96727C23.4474 9.16076 23.2249 9.25071 23.0506 9.15009L20.9827 7.95618Z" fill="#4DB662"/>
<path d="M14.4938 3.72736C14.5792 3.57941 14.7684 3.52872 14.9163 3.61414L16.1979 4.35404C16.333 4.43204 16.3889 4.59846 16.3282 4.7422L15.6548 6.33788C15.5988 6.4705 15.4588 6.54698 15.317 6.5224L13.5384 6.21407C13.3265 6.17734 13.2158 5.94089 13.3233 5.75462L14.4938 3.72736Z" fill="#4DB662"/>
<path d="M14.0649 12.4908C13.8827 12.5092 13.7244 12.3662 13.7244 12.183L13.7244 10.9828C13.7244 10.8285 13.8381 10.6979 13.9909 10.6765L15.7019 10.4371C15.8482 10.4166 15.9886 10.5024 16.037 10.642L16.4619 11.8657C16.5275 12.0544 16.3996 12.2548 16.2008 12.2749L14.0649 12.4908Z" fill="#4DB662"/>
</svg>
