<svg width="36" height="36" viewBox="0 0 36 36" fill="none" xmlns="http://www.w3.org/2000/svg">
<path fill-rule="evenodd" clip-rule="evenodd" d="M28 9.99976H20V30.9998H28C30.7614 30.9998 33 28.7612 33 25.9998V14.9998C33 12.2383 30.7614 9.99976 28 9.99976ZM21.6431 13.4998C20.8146 13.4998 20.1431 14.1713 20.1431 14.9998V25.9998C20.1431 26.8282 20.8146 27.4998 21.6431 27.4998H28.2859C29.1144 27.4998 29.7859 26.8282 29.7859 25.9998V14.9998C29.7859 14.1713 29.1144 13.4998 28.2859 13.4998H21.6431Z" fill="#FFCB7D"/>
<path d="M5 11.9999C5 9.79074 6.79086 7.99988 9 7.99988H23C25.2091 7.99988 27 9.79074 27 11.9999V30.9999C27 33.209 25.2091 34.9999 23 34.9999H9C6.79086 34.9999 5 33.209 5 30.9999V11.9999Z" fill="#FFCB7D"/>
<mask id="mask0_508_1995" style="mask-type:alpha" maskUnits="userSpaceOnUse" x="5" y="7" width="22" height="28">
<path d="M5 11.9999C5 9.79074 6.79086 7.99988 9 7.99988H23C25.2091 7.99988 27 9.79074 27 11.9999V30.9999C27 33.209 25.2091 34.9999 23 34.9999H9C6.79086 34.9999 5 33.209 5 30.9999V11.9999Z" fill="#FFCB7D"/>
</mask>
<g mask="url(#mask0_508_1995)">
<path d="M5 31.9999H27V32.7856C27 34.5608 25.5609 35.9999 23.7857 35.9999H8.21428C6.43908 35.9999 5 34.5608 5 32.7856V31.9999Z" fill="#EBB667"/>
</g>
<rect x="9.59961" y="14.9999" width="2.14286" height="13.9286" rx="1.07143" fill="#EBB667"/>
<rect x="20.3145" y="14.9999" width="2.14286" height="13.9286" rx="1.07143" fill="#EBB667"/>
<rect x="14.957" y="14.9999" width="2.14286" height="13.9286" rx="1.07143" fill="#EBB667"/>
<path d="M18.788 9.65224C17.7071 10.9555 16.0755 11.7856 14.25 11.7856C12.1449 11.7856 10.2976 10.6818 9.2553 9.02131C8.2882 11.2189 6.14883 11.7856 5.14286 11.7856V17.1427C5.14286 17.7345 4.66316 18.2142 4.07143 18.2142C3.47969 18.2142 3 17.7345 3 17.1427V8.57131C3 4.82131 4.60714 2.14274 7.28571 2.14274C8.89286 2.14274 9.42857 2.67845 9.42857 2.67845C10.4414 0.894189 12.0517 -0.00012207 14.25 -0.00012207C16.9286 -0.00012207 18 1.07131 18.6233 1.94294C19.3429 1.39597 20.2407 1.07131 21.2143 1.07131C22.9417 1.07131 24.2859 2.09324 24.9643 3.5655C25.5 3.21416 26 3.21416 26.5714 3.21416C28 3.21416 29 4.72468 29 6.49988C29 8.27508 28 9.99988 26.5 9.99988C26.5 9.99988 26.079 9.99988 25.4907 10.0025C24.9027 10.0051 24.4286 10.4833 24.4286 11.0713V14.4642C24.4286 15.3518 23.709 16.0713 22.8214 16.0713C21.9338 16.0713 21.2143 15.3518 21.2143 14.4642V11.7856C21.2143 10.3004 19.8419 9.73025 18.788 9.65224Z" fill="white"/>
</svg>
