<svg width="36" height="36" viewBox="0 0 36 36" fill="none" xmlns="http://www.w3.org/2000/svg">
<path d="M8 33.6111C8 32.9975 8.49746 32.5 9.11111 32.5H26.8889C27.5025 32.5 28 32.9975 28 33.6111C28 34.102 27.602 34.5 27.1111 34.5H8.88889C8.39797 34.5 8 34.102 8 33.6111Z" fill="black" fill-opacity="0.05"/>
<path d="M20.6408 4.0014C21.5336 2.95207 23.1539 2.95207 24.0467 4.0014C24.6002 4.65179 25.4757 4.93018 26.3031 4.71883L26.4811 4.67339C27.7623 4.34611 29.0231 5.27167 29.0947 6.59213C29.1403 7.43141 29.6824 8.16247 30.4723 8.44978L30.5862 8.4912C31.8309 8.94394 32.3142 10.4492 31.5658 11.5419C31.0929 12.2324 31.0929 13.1426 31.5658 13.8331C32.3142 14.9258 31.8309 16.4311 30.5862 16.8838L30.4723 16.9252C29.6824 17.2125 29.1403 17.9436 29.0947 18.7829C29.0231 20.1033 27.7623 21.0289 26.4811 20.7016L26.3031 20.6562C25.4757 20.4448 24.6002 20.7232 24.0467 21.3736C23.1539 22.4229 21.5336 22.4229 20.6408 21.3736C20.0873 20.7232 19.2118 20.4448 18.3844 20.6562L18.2064 20.7016C16.9252 21.0289 15.6644 20.1033 15.5928 18.7829C15.5472 17.9436 15.0051 17.2125 14.2152 16.9252L14.1013 16.8838C12.8566 16.4311 12.3733 14.9258 13.1217 13.8331C13.5946 13.1426 13.5946 12.2324 13.1217 11.5419C12.3733 10.4492 12.8566 8.94394 14.1013 8.4912L14.2152 8.44978C15.0051 8.16247 15.5472 7.43141 15.5928 6.59213C15.6644 5.27167 16.9252 4.34611 18.2064 4.67339L18.3844 4.71883C19.2118 4.93018 20.0873 4.65179 20.6408 4.0014Z" fill="#4DB662"/>
<ellipse cx="13.75" cy="6.78125" rx="6.375" ry="4.78125" fill="#ED5960"/>
<rect x="14.6504" y="4.125" width="10.625" height="11.6875" rx="1.59375" transform="rotate(15 14.6504 4.125)" fill="white"/>
<ellipse cx="11.0938" cy="12.2455" rx="6.375" ry="5.46429" fill="#DB9A75"/>
<path d="M8.96875 9.05811L14.2813 12.2456" stroke="#AF7351" stroke-width="0.910714" stroke-linecap="round" stroke-linejoin="round"/>
<path d="M7.90625 12.2456L13.2188 9.05811" stroke="#AF7351" stroke-width="0.910714" stroke-linecap="round" stroke-linejoin="round"/>
<path d="M3.125 16.875H32.875V22.1875C32.875 28.0555 28.118 32.8125 22.25 32.8125H13.75C7.88197 32.8125 3.125 28.0555 3.125 22.1875V16.875Z" fill="#36363B"/>
<path d="M3.125 14.75C3.125 14.1632 3.6007 13.6875 4.1875 13.6875H31.8125C32.3993 13.6875 32.875 14.1632 32.875 14.75V17.9375H3.125V14.75Z" fill="#2A2A2E"/>
<rect x="1" y="17.9375" width="34" height="6.375" rx="2.125" fill="#36363B"/>
<path d="M1 22.1875H35C35 23.3611 34.0486 24.3125 32.875 24.3125H3.125C1.95139 24.3125 1 23.3611 1 22.1875Z" fill="#2A2A2E"/>
</svg>
