<svg width="36" height="36" viewBox="0 0 36 36" fill="none" xmlns="http://www.w3.org/2000/svg">
<ellipse cx="18" cy="26" rx="18" ry="10" fill="black" fill-opacity="0.05"/>
<ellipse cx="18" cy="22.5" rx="18" ry="11" fill="white"/>
<path d="M34.0349 17.1384C34.0349 20.2682 32.3576 22.9204 29.4774 24.8319C26.5822 26.7533 22.5119 27.8861 17.9417 27.8861C13.3715 27.8861 9.30112 26.7533 6.40597 24.8319C3.52574 22.9204 1.84844 20.2682 1.84844 17.1384C1.84844 13.9657 3.5703 10.7554 6.49566 8.30883C9.41209 5.86969 13.4595 4.25249 17.9417 4.25249C22.4238 4.25249 26.4713 5.86969 29.3877 8.30883C32.313 10.7554 34.0349 13.9657 34.0349 17.1384Z" fill="#FFD89D" stroke="#F6CA88" stroke-width="2.025"/>
<path d="M32.966 14.2429C32.966 16.5508 31.5017 18.5966 28.7865 20.1182C26.0729 21.639 22.2453 22.5405 17.9419 22.5405C13.6385 22.5405 9.81089 21.639 7.09729 20.1182C4.3821 18.5966 2.91777 16.5508 2.91777 14.2429C2.91777 11.8818 4.44318 9.40237 7.18638 7.465C9.90895 5.5422 13.7119 4.25249 17.9419 4.25249C22.1719 4.25249 25.9748 5.5422 28.6974 7.465C31.4406 9.40237 32.966 11.8818 32.966 14.2429Z" stroke="#F6CA88" stroke-width="2.025"/>
<path d="M31.8971 11.3474C31.8971 12.79 30.719 14.2498 28.1161 15.4015C25.5731 16.5266 21.9806 17.195 17.9421 17.195C13.9037 17.195 10.3111 16.5266 7.76816 15.4015C5.16523 14.2498 3.98711 12.79 3.98711 11.3474C3.98711 9.8404 5.24999 8.07862 7.85156 6.62809C10.3918 5.21174 13.9602 4.25249 17.9421 4.25249C21.924 4.25249 25.4924 5.21174 28.0327 6.62809C30.6343 8.07862 31.8971 9.8404 31.8971 11.3474Z" stroke="#F6CA88" stroke-width="2.025"/>
<path d="M33.6445 17.4075C33.1339 19.3133 31.6274 20.8377 29.4625 21.7105C27.2971 22.5835 24.5307 22.7719 21.6903 22.0108C18.85 21.2497 16.5484 19.7033 15.1096 17.8646C13.6711 16.0263 13.1287 13.953 13.6394 12.0472C14.15 10.1414 15.6565 8.61699 17.8214 7.74422C19.9868 6.87125 22.7532 6.68285 25.5935 7.44392C28.4339 8.20499 30.7355 9.75136 32.1743 11.5901C33.6128 13.4284 34.1552 15.5017 33.6445 17.4075Z" fill="#FFD89D" stroke="#F6CA88" stroke-width="2.025"/>
<path d="M32.8376 14.9503C32.4825 16.2758 31.4237 17.3597 29.8521 17.9872C28.2802 18.6148 26.2557 18.7522 24.1653 18.1921C22.075 17.632 20.3904 16.5007 19.3429 15.1713C18.2955 13.842 17.9206 12.374 18.2757 11.0485C18.6309 9.72293 19.6897 8.63908 21.2613 8.01156C22.8332 7.38396 24.8577 7.24659 26.9481 7.8067C29.0384 8.36681 30.723 9.49804 31.7705 10.8275C32.8178 12.1568 33.1928 13.6248 32.8376 14.9503Z" fill="#FFD89D" stroke="#F6CA88" stroke-width="2.025"/>
<path d="M18.476 3.23999C10.4577 3.23999 7.42317 5.14148 5.11202 7.51642C3.50836 9.16436 1.90487 15.0002 8.31951 13.9311C14.7342 12.862 15.8033 13.3965 21.6834 15.0002C29.4877 17.1286 31.3052 13.3965 31.84 11.7929C32.3277 10.3302 31.6615 8.58553 31.3052 8.05098C30.4143 6.44732 27.0289 3.23999 18.476 3.23999Z" fill="#EC4C54"/>
<path d="M25.891 3.16714C25.891 3.16714 25.0675 5.60144 22.3137 6.33932C19.5599 7.07721 17.6296 5.38079 17.6296 5.38079C17.6296 5.38079 18.4531 2.94649 21.2069 2.20861C23.9607 1.47073 25.891 3.16714 25.891 3.16714Z" fill="#59C96F"/>
<path d="M9.94199 3.16714C9.94199 3.16714 10.7655 5.60144 13.5193 6.33932C16.2731 7.07721 18.2034 5.38079 18.2034 5.38079C18.2034 5.38079 17.3799 2.94649 14.6261 2.20861C11.8723 1.47073 9.94199 3.16714 9.94199 3.16714Z" fill="#59C96F"/>
</svg>
