<svg width="100%" height="100%" viewBox="0 0 120 120" fill="none" xmlns="http://www.w3.org/2000/svg">
<rect width="120" height="120" rx="28" fill="white"/>
<path d="M49.6541 55.9447C51.5965 66.1693 43.9649 76.6957 33.2358 79.5705C22.9849 82.3173 11.5743 76.1045 8.71544 65.4352C5.85661 54.7659 12.6321 43.6802 22.8831 40.9335C33.6122 38.0586 45.4845 43.3589 48.9146 53.1849L32.523 57.577C31.9895 57.72 31.6729 58.2683 31.8159 58.8018L32.0377 59.6297C32.1807 60.1632 32.729 60.4798 33.2625 60.3368L49.6541 55.9447Z" fill="#FF7A4E"/>
<path d="M66.6254 41.0698L62.4548 56.6348C62.3118 57.1683 61.7635 57.4849 61.23 57.3419L60.2641 57.0831C59.7306 56.9402 59.4141 56.3918 59.557 55.8584L63.7276 40.2933C53.0112 38.1811 42.2014 45.2883 39.4634 55.5065C36.3421 67.1552 45.5528 76.8344 54.8238 79.3186C64.0947 81.8027 76.911 78.0255 80.0323 66.3769C82.7702 56.1587 76.9622 44.5988 66.6254 41.0698Z" fill="#FFC42E"/>
<path d="M111.732 62.3326C110.574 70.1657 103.677 77.3087 95.2103 79.5774C83.0416 82.8379 73.0566 74.1727 70.7154 65.4352C68.3742 56.6977 72.6889 44.2009 84.8576 40.9403C93.3242 38.6717 102.869 41.4091 107.789 47.6137L95.7894 50.8288C95.2559 50.9718 94.9394 51.5201 95.0823 52.0536L95.3041 52.8815C95.4471 53.415 95.9954 53.7316 96.5289 53.5886L108.724 50.321C109.165 50.2028 109.633 50.3972 109.84 50.8038C110.442 51.9827 110.929 53.2394 111.284 54.5648C111.639 55.8903 111.846 57.2221 111.914 58.544C111.938 59 111.63 59.4021 111.189 59.5203L98.9938 62.7879C98.4604 62.9309 98.1438 63.4792 98.2867 64.0127L98.5086 64.8406C98.6515 65.3741 99.1999 65.6907 99.7333 65.5477L111.732 62.3326Z" fill="#FF7A4E"/>
</svg>
