<svg width="12" height="13" viewBox="0 0 12 13" fill="none" xmlns="http://www.w3.org/2000/svg">
<path fill-rule="evenodd" clip-rule="evenodd" d="M7.39771 2.32512C7.66099 2.96025 7.68317 3.91828 7.3348 5.29208L10.1581 5.29207C10.5739 5.29207 10.8696 5.69643 10.7435 6.09261L9.20259 10.9355C9.12148 11.1904 8.88473 11.3635 8.61722 11.3635H2.25003C1.91077 11.3635 1.63574 11.0885 1.63574 10.7492V6.02565C1.63574 5.64141 1.88466 5.32855 2.20262 5.1929C2.71814 4.97297 3.41245 4.55499 4.04515 3.97096C4.678 3.38681 5.23016 2.65431 5.49464 1.81014C5.55621 1.61364 5.73613 1.40234 6.02008 1.38762C6.55196 1.36005 7.11141 1.63444 7.39771 2.32512Z" fill="#FF7B54"/>
</svg>
