<svg width="24" height="24" viewBox="0 0 24 24" fill="none" xmlns="http://www.w3.org/2000/svg">
<path fill-rule="evenodd" clip-rule="evenodd" d="M18.0558 9.77402C18.7545 9.07532 19.8873 9.07533 20.586 9.77403L22.726 11.914C23.4247 12.6128 23.4247 13.7456 22.726 14.4443L15.9442 21.226C15.6087 21.5615 15.1536 21.75 14.6791 21.75H10.75V17.8209C10.75 17.3463 10.9385 16.8913 11.274 16.5557L18.0558 9.77402ZM19.5253 10.8347C19.4124 10.7218 19.2294 10.7218 19.1165 10.8347L12.3347 17.6164C12.2805 17.6706 12.25 17.7442 12.25 17.8209V20.25H14.6791C14.7558 20.25 14.8293 20.2195 14.8835 20.1653L21.6653 13.3836C21.7782 13.2707 21.7782 13.0876 21.6653 12.9747L19.5253 10.8347Z" fill="#2A2A2E"/>
<path fill-rule="evenodd" clip-rule="evenodd" d="M4.5 3.75C4.36193 3.75 4.25 3.86193 4.25 4V19C4.25 19.1381 4.36193 19.25 4.5 19.25H9.5V20.75H4.5C3.5335 20.75 2.75 19.9665 2.75 19V4C2.75 3.0335 3.5335 2.25 4.5 2.25H17.5C18.4665 2.25 19.25 3.0335 19.25 4V7.97005H17.75V4C17.75 3.86193 17.6381 3.75 17.5 3.75H4.5Z" fill="#2A2A2E"/>
<path fill-rule="evenodd" clip-rule="evenodd" d="M15.5 7.8C15.5 7.91046 15.4105 8 15.3 8H6.7C6.58954 8 6.5 7.91046 6.5 7.8V6.7C6.5 6.58954 6.58954 6.5 6.7 6.5H15.3C15.4105 6.5 15.5 6.58954 15.5 6.7V7.8Z" fill="#2A2A2E"/>
<path fill-rule="evenodd" clip-rule="evenodd" d="M13 11.8C13 11.9105 12.9105 12 12.8 12H6.7C6.58954 12 6.5 11.9105 6.5 11.8V10.7C6.5 10.5895 6.58954 10.5 6.7 10.5H12.8C12.9105 10.5 13 10.5895 13 10.7V11.8Z" fill="#2A2A2E"/>
<path fill-rule="evenodd" clip-rule="evenodd" d="M9.5 15.8C9.5 15.9105 9.41046 16 9.3 16H6.7C6.58954 16 6.5 15.9105 6.5 15.8V14.7C6.5 14.5895 6.58954 14.5 6.7 14.5H9.3C9.41046 14.5 9.5 14.5895 9.5 14.7V15.8Z" fill="#2A2A2E"/>
</svg>
