<svg width="21" height="20" viewBox="0 0 21 20" fill="none" xmlns="http://www.w3.org/2000/svg">
<path d="M19 7.7605C19 13.2292 10.8914 17.6558 10.5461 17.8386C10.4551 17.8876 10.3533 17.9132 10.25 17.9132C10.1467 17.9132 10.0449 17.8876 9.95391 17.8386C9.60859 17.6558 1.5 13.2292 1.5 7.7605C1.50145 6.4763 2.01223 5.24511 2.9203 4.33705C3.82837 3.42898 5.05955 2.9182 6.34375 2.91675C8.16667 2.91469 9.36953 3.6105 10.25 4.78315C11.1305 3.6105 12.3333 2.91675 14.1562 2.91675C15.4404 2.9182 16.6716 3.42898 17.5797 4.33705C18.4878 5.24511 18.9986 6.4763 19 7.7605Z" fill="white"/>
</svg>
